<?xml version="1.0" encoding="UTF-8"?><svg xmlns="http://www.w3.org/2000/svg" xmlns:xlink="http://www.w3.org/1999/xlink" height="193.8" preserveAspectRatio="xMidYMid meet" version="1.0" viewBox="108.1 115.7 209.0 193.8" width="209.0" zoomAndPan="magnify"><g><g id="change1_1"><path d="M 125.550781 223.394531 C 127.296875 222.5 129.890625 222.121094 133.90625 221.71875 C 129.890625 221.320312 127.296875 220.941406 125.550781 220.046875 C 126.152344 218.183594 127.71875 216.078125 130.273438 212.957031 C 127.152344 215.511719 125.050781 217.078125 123.1875 217.679688 C 122.289062 215.9375 121.914062 213.34375 121.511719 209.328125 C 121.109375 213.34375 120.730469 215.9375 119.835938 217.679688 C 117.972656 217.078125 115.871094 215.511719 112.75 212.957031 C 115.300781 216.078125 116.871094 218.183594 117.46875 220.046875 C 115.726562 220.941406 113.132812 221.320312 109.117188 221.71875 C 113.132812 222.121094 115.726562 222.5 117.464844 223.394531 C 116.867188 225.257812 115.300781 227.359375 112.746094 230.484375 C 115.871094 227.929688 117.972656 226.363281 119.835938 225.761719 C 120.730469 227.503906 121.109375 230.101562 121.511719 234.113281 C 121.914062 230.101562 122.289062 227.503906 123.1875 225.761719 C 125.050781 226.363281 127.152344 227.933594 130.277344 230.484375 C 127.722656 227.359375 126.152344 225.257812 125.550781 223.394531" fill="#fbc439"/></g><path d="M 1255.507812 2018.054688 C 1272.96875 2027 1298.90625 2030.789062 1339.0625 2034.8125 C 1298.90625 2038.796875 1272.96875 2042.585938 1255.507812 2051.53125 C 1261.523438 2070.164062 1277.1875 2091.21875 1302.734375 2122.429688 C 1271.523438 2096.882812 1250.507812 2081.21875 1231.875 2075.203125 C 1222.890625 2092.625 1219.140625 2118.5625 1215.117188 2158.71875 C 1211.09375 2118.5625 1207.304688 2092.625 1198.359375 2075.203125 C 1179.726562 2081.21875 1158.710938 2096.882812 1127.5 2122.429688 C 1153.007812 2091.21875 1168.710938 2070.164062 1174.6875 2051.53125 C 1157.265625 2042.585938 1131.328125 2038.796875 1091.171875 2034.8125 C 1131.328125 2030.789062 1157.265625 2027 1174.648438 2018.054688 C 1168.671875 1999.421875 1153.007812 1978.40625 1127.460938 1947.15625 C 1158.710938 1972.703125 1179.726562 1988.367188 1198.359375 1994.382812 C 1207.304688 1976.960938 1211.09375 1950.984375 1215.117188 1910.867188 C 1219.140625 1950.984375 1222.890625 1976.960938 1231.875 1994.382812 C 1250.507812 1988.367188 1271.523438 1972.664062 1302.773438 1947.15625 C 1277.226562 1978.40625 1261.523438 1999.421875 1255.507812 2018.054688 Z M 1255.507812 2018.054688" fill="none" stroke="#0a2f4d" stroke-linejoin="round" stroke-miterlimit="10" stroke-width="20" transform="matrix(.1 0 0 -.1 0 425.2)"/><g id="change1_2"><path d="M 307.730469 194.332031 C 309.476562 193.4375 312.070312 193.0625 316.082031 192.65625 C 312.070312 192.257812 309.476562 191.878906 307.730469 190.984375 C 308.332031 189.121094 309.898438 187.015625 312.449219 183.894531 C 309.332031 186.449219 307.226562 188.019531 305.363281 188.617188 C 304.46875 186.875 304.089844 184.277344 303.691406 180.265625 C 303.289062 184.277344 302.910156 186.875 302.015625 188.617188 C 300.148438 188.019531 298.050781 186.449219 294.925781 183.894531 C 297.480469 187.019531 299.046875 189.121094 299.648438 190.984375 C 297.90625 191.878906 295.308594 192.257812 291.296875 192.65625 C 295.308594 193.058594 297.90625 193.4375 299.644531 194.332031 C 299.046875 196.195312 297.480469 198.300781 294.925781 201.421875 C 298.050781 198.867188 300.148438 197.300781 302.015625 196.699219 C 302.910156 198.441406 303.289062 201.039062 303.691406 205.050781 C 304.089844 201.039062 304.46875 198.441406 305.363281 196.699219 C 307.226562 197.300781 309.332031 198.871094 312.453125 201.421875 C 309.898438 198.300781 308.332031 196.195312 307.730469 194.332031" fill="#fbc439"/></g><path d="M 3077.304688 2308.679688 C 3094.765625 2317.625 3120.703125 2321.375 3160.820312 2325.4375 C 3120.703125 2329.421875 3094.765625 2333.210938 3077.304688 2342.15625 C 3083.320312 2360.789062 3098.984375 2381.84375 3124.492188 2413.054688 C 3093.320312 2387.507812 3072.265625 2371.804688 3053.632812 2365.828125 C 3044.6875 2383.25 3040.898438 2409.226562 3036.914062 2449.34375 C 3032.890625 2409.226562 3029.101562 2383.25 3020.15625 2365.828125 C 3001.484375 2371.804688 2980.507812 2387.507812 2949.257812 2413.054688 C 2974.804688 2381.804688 2990.46875 2360.789062 2996.484375 2342.15625 C 2979.0625 2333.210938 2953.085938 2329.421875 2912.96875 2325.4375 C 2953.085938 2321.414062 2979.0625 2317.625 2996.445312 2308.679688 C 2990.46875 2290.046875 2974.804688 2268.992188 2949.257812 2237.78125 C 2980.507812 2263.328125 3001.484375 2278.992188 3020.15625 2285.007812 C 3029.101562 2267.585938 3032.890625 2241.609375 3036.914062 2201.492188 C 3040.898438 2241.609375 3044.6875 2267.585938 3053.632812 2285.007812 C 3072.265625 2278.992188 3093.320312 2263.289062 3124.53125 2237.78125 C 3098.984375 2268.992188 3083.320312 2290.046875 3077.304688 2308.679688 Z M 3077.304688 2308.679688" fill="none" stroke="#0a2f4d" stroke-linejoin="round" stroke-miterlimit="10" stroke-width="20" transform="matrix(.1 0 0 -.1 0 425.2)"/><g id="change1_3"><path d="M 206.121094 297.496094 C 207.179688 296.953125 208.757812 296.722656 211.199219 296.480469 C 208.757812 296.234375 207.179688 296.003906 206.121094 295.460938 C 206.484375 294.328125 207.4375 293.046875 208.988281 291.152344 C 207.09375 292.703125 205.8125 293.65625 204.683594 294.023438 C 204.136719 292.960938 203.90625 291.382812 203.664062 288.945312 C 203.417969 291.382812 203.1875 292.964844 202.644531 294.023438 C 201.511719 293.65625 200.234375 292.703125 198.335938 291.152344 C 199.886719 293.046875 200.839844 294.328125 201.207031 295.460938 C 200.144531 296.003906 198.566406 296.234375 196.125 296.480469 C 198.566406 296.722656 200.144531 296.953125 201.207031 297.496094 C 200.839844 298.632812 199.882812 299.910156 198.332031 301.808594 C 200.234375 300.253906 201.511719 299.304688 202.644531 298.9375 C 203.1875 299.996094 203.417969 301.574219 203.664062 304.015625 C 203.90625 301.574219 204.136719 299.996094 204.683594 298.9375 C 205.8125 299.304688 207.09375 300.253906 208.992188 301.808594 C 207.4375 299.910156 206.484375 298.632812 206.121094 297.496094" fill="#fbc439"/></g><path d="M 2061.210938 1277.039062 C 2071.796875 1282.46875 2087.578125 1284.773438 2111.992188 1287.195312 C 2087.578125 1289.65625 2071.796875 1291.960938 2061.210938 1297.390625 C 2064.84375 1308.71875 2074.375 1321.53125 2089.882812 1340.476562 C 2070.9375 1324.96875 2058.125 1315.4375 2046.835938 1311.765625 C 2041.367188 1322.390625 2039.0625 1338.171875 2036.640625 1362.546875 C 2034.179688 1338.171875 2031.875 1322.351562 2026.445312 1311.765625 C 2015.117188 1315.4375 2002.34375 1324.96875 1983.359375 1340.476562 C 1998.867188 1321.53125 2008.398438 1308.71875 2012.070312 1297.390625 C 2001.445312 1291.960938 1985.664062 1289.65625 1961.25 1287.195312 C 1985.664062 1284.773438 2001.445312 1282.46875 2012.070312 1277.039062 C 2008.398438 1265.671875 1998.828125 1252.898438 1983.320312 1233.914062 C 2002.34375 1249.460938 2015.117188 1258.953125 2026.445312 1262.625 C 2031.875 1252.039062 2034.179688 1236.257812 2036.640625 1211.84375 C 2039.0625 1236.257812 2041.367188 1252.039062 2046.835938 1262.625 C 2058.125 1258.953125 2070.9375 1249.460938 2089.921875 1233.914062 C 2074.375 1252.898438 2064.84375 1265.671875 2061.210938 1277.039062 Z M 2061.210938 1277.039062" fill="none" stroke="#0a2f4d" stroke-linejoin="round" stroke-miterlimit="10" stroke-width="20" transform="matrix(.1 0 0 -.1 0 425.2)"/><g id="change1_4"><path d="M 173.496094 129.738281 C 174.554688 129.195312 176.132812 128.964844 178.574219 128.71875 C 176.132812 128.476562 174.554688 128.246094 173.496094 127.703125 C 173.859375 126.566406 174.8125 125.289062 176.367188 123.390625 C 174.46875 124.941406 173.191406 125.898438 172.054688 126.261719 C 171.511719 125.203125 171.28125 123.625 171.039062 121.183594 C 170.792969 123.625 170.566406 125.203125 170.019531 126.261719 C 168.882812 125.898438 167.605469 124.941406 165.707031 123.390625 C 167.261719 125.289062 168.214844 126.566406 168.578125 127.703125 C 167.519531 128.246094 165.941406 128.476562 163.5 128.71875 C 165.941406 128.964844 167.519531 129.195312 168.578125 129.738281 C 168.210938 130.871094 167.261719 132.152344 165.707031 134.050781 C 167.605469 132.496094 168.882812 131.542969 170.019531 131.179688 C 170.566406 132.238281 170.792969 133.816406 171.039062 136.257812 C 171.28125 133.816406 171.511719 132.238281 172.054688 131.179688 C 173.191406 131.542969 174.46875 132.496094 176.367188 134.050781 C 174.8125 132.152344 173.859375 130.871094 173.496094 129.738281" fill="#fbc439"/></g><path d="M 1734.960938 2954.617188 C 1745.546875 2960.046875 1761.328125 2962.351562 1785.742188 2964.8125 C 1761.328125 2967.234375 1745.546875 2969.539062 1734.960938 2974.96875 C 1738.59375 2986.335938 1748.125 2999.109375 1763.671875 3018.09375 C 1744.6875 3002.585938 1731.914062 2993.015625 1720.546875 2989.382812 C 1715.117188 2999.96875 1712.8125 3015.75 1710.390625 3040.164062 C 1707.929688 3015.75 1705.664062 2999.96875 1700.195312 2989.382812 C 1688.828125 2993.015625 1676.054688 3002.585938 1657.070312 3018.09375 C 1672.617188 2999.109375 1682.148438 2986.335938 1685.78125 2974.96875 C 1675.195312 2969.539062 1659.414062 2967.234375 1635 2964.8125 C 1659.414062 2962.351562 1675.195312 2960.046875 1685.78125 2954.617188 C 1682.109375 2943.289062 1672.617188 2930.476562 1657.070312 2911.492188 C 1676.054688 2927.039062 1688.828125 2936.570312 1700.195312 2940.203125 C 1705.664062 2929.617188 1707.929688 2913.835938 1710.390625 2889.421875 C 1712.8125 2913.835938 1715.117188 2929.617188 1720.546875 2940.203125 C 1731.914062 2936.570312 1744.6875 2927.039062 1763.671875 2911.492188 C 1748.125 2930.476562 1738.59375 2943.289062 1734.960938 2954.617188 Z M 1734.960938 2954.617188" fill="none" stroke="#0a2f4d" stroke-linejoin="round" stroke-miterlimit="10" stroke-width="20" transform="matrix(.1 0 0 -.1 0 425.2)"/><g id="change1_5"><path d="M 228.441406 136.882812 C 229.09375 136.546875 230.0625 136.40625 231.558594 136.257812 C 230.0625 136.105469 229.09375 135.964844 228.441406 135.632812 C 228.664062 134.9375 229.25 134.148438 230.207031 132.984375 C 229.039062 133.9375 228.253906 134.523438 227.558594 134.75 C 227.222656 134.097656 227.082031 133.128906 226.933594 131.628906 C 226.78125 133.128906 226.640625 134.097656 226.308594 134.75 C 225.613281 134.523438 224.828125 133.9375 223.664062 132.984375 C 224.617188 134.148438 225.199219 134.9375 225.425781 135.632812 C 224.773438 135.964844 223.804688 136.105469 222.308594 136.257812 C 223.804688 136.40625 224.773438 136.546875 225.421875 136.882812 C 225.199219 137.578125 224.613281 138.363281 223.664062 139.527344 C 224.828125 138.574219 225.613281 137.988281 226.308594 137.765625 C 226.640625 138.414062 226.78125 139.386719 226.933594 140.882812 C 227.082031 139.386719 227.222656 138.414062 227.558594 137.765625 C 228.253906 137.988281 229.039062 138.574219 230.207031 139.527344 C 229.25 138.363281 228.664062 137.578125 228.441406 136.882812" fill="#fbc439"/></g><path d="M 2284.414062 2883.171875 C 2290.9375 2886.53125 2300.625 2887.9375 2315.585938 2889.421875 C 2300.625 2890.945312 2290.9375 2892.351562 2284.414062 2895.671875 C 2286.640625 2902.625 2292.5 2910.515625 2302.070312 2922.15625 C 2290.390625 2912.625 2282.539062 2906.765625 2275.585938 2904.5 C 2272.226562 2911.023438 2270.820312 2920.710938 2269.335938 2935.710938 C 2267.8125 2920.710938 2266.40625 2911.023438 2263.085938 2904.5 C 2256.132812 2906.765625 2248.28125 2912.625 2236.640625 2922.15625 C 2246.171875 2910.515625 2251.992188 2902.625 2254.257812 2895.671875 C 2247.734375 2892.351562 2238.046875 2890.945312 2223.085938 2889.421875 C 2238.046875 2887.9375 2247.734375 2886.53125 2254.21875 2883.171875 C 2251.992188 2876.21875 2246.132812 2868.367188 2236.640625 2856.726562 C 2248.28125 2866.257812 2256.132812 2872.117188 2263.085938 2874.34375 C 2266.40625 2867.859375 2267.8125 2858.132812 2269.335938 2843.171875 C 2270.820312 2858.132812 2272.226562 2867.859375 2275.585938 2874.34375 C 2282.539062 2872.117188 2290.390625 2866.257812 2302.070312 2856.726562 C 2292.5 2868.367188 2286.640625 2876.21875 2284.414062 2883.171875 Z M 2284.414062 2883.171875" fill="none" stroke="#0a2f4d" stroke-linejoin="round" stroke-miterlimit="10" stroke-width="20" transform="matrix(.1 0 0 -.1 0 425.2)"/><g id="change1_6"><path d="M 150.871094 250.078125 C 151.472656 249.769531 152.367188 249.640625 153.753906 249.5 C 152.367188 249.359375 151.472656 249.230469 150.871094 248.921875 C 151.074219 248.28125 151.617188 247.554688 152.5 246.472656 C 151.421875 247.355469 150.695312 247.898438 150.050781 248.105469 C 149.746094 247.503906 149.613281 246.609375 149.476562 245.222656 C 149.335938 246.609375 149.207031 247.503906 148.898438 248.105469 C 148.253906 247.898438 147.527344 247.355469 146.453125 246.476562 C 147.332031 247.554688 147.871094 248.28125 148.082031 248.921875 C 147.476562 249.230469 146.582031 249.359375 145.195312 249.5 C 146.582031 249.640625 147.476562 249.769531 148.078125 250.078125 C 147.871094 250.722656 147.332031 251.445312 146.453125 252.523438 C 147.527344 251.644531 148.253906 251.101562 148.898438 250.894531 C 149.207031 251.496094 149.335938 252.390625 149.476562 253.777344 C 149.613281 252.390625 149.746094 251.496094 150.050781 250.894531 C 150.695312 251.101562 151.421875 251.644531 152.5 252.523438 C 151.617188 251.445312 151.074219 250.722656 150.871094 250.078125" fill="#fbc439"/></g><path d="M 1508.710938 1751.21875 C 1514.726562 1754.304688 1523.671875 1755.59375 1537.539062 1757 C 1523.671875 1758.40625 1514.726562 1759.695312 1508.710938 1762.78125 C 1510.742188 1769.1875 1516.171875 1776.453125 1525 1787.273438 C 1514.21875 1778.445312 1506.953125 1773.015625 1500.507812 1770.945312 C 1497.460938 1776.960938 1496.132812 1785.90625 1494.765625 1799.773438 C 1493.359375 1785.90625 1492.070312 1776.960938 1488.984375 1770.945312 C 1482.539062 1773.015625 1475.273438 1778.445312 1464.53125 1787.234375 C 1473.320312 1776.453125 1478.710938 1769.1875 1480.820312 1762.78125 C 1474.765625 1759.695312 1465.820312 1758.40625 1451.953125 1757 C 1465.820312 1755.59375 1474.765625 1754.304688 1480.78125 1751.21875 C 1478.710938 1744.773438 1473.320312 1737.546875 1464.53125 1726.765625 C 1475.273438 1735.554688 1482.539062 1740.984375 1488.984375 1743.054688 C 1492.070312 1737.039062 1493.359375 1728.09375 1494.765625 1714.226562 C 1496.132812 1728.09375 1497.460938 1737.039062 1500.507812 1743.054688 C 1506.953125 1740.984375 1514.21875 1735.554688 1525 1726.765625 C 1516.171875 1737.546875 1510.742188 1744.773438 1508.710938 1751.21875 Z M 1508.710938 1751.21875" fill="none" stroke="#0a2f4d" stroke-linejoin="round" stroke-miterlimit="10" stroke-width="20" transform="matrix(.1 0 0 -.1 0 425.2)"/><g id="change1_7"><path d="M 265.914062 155.648438 C 263.742188 157.910156 260.148438 157.984375 257.890625 155.8125 C 255.625 153.640625 255.550781 150.046875 257.722656 147.785156 C 259.898438 145.523438 263.488281 145.453125 265.75 147.621094 C 268.011719 149.792969 268.085938 153.386719 265.914062 155.648438" fill="#fbc439"/></g><path d="M 2659.140625 2695.515625 C 2637.421875 2672.898438 2601.484375 2672.15625 2578.90625 2693.875 C 2556.25 2715.59375 2555.507812 2751.53125 2577.226562 2774.148438 C 2598.984375 2796.765625 2634.882812 2797.46875 2657.5 2775.789062 C 2680.117188 2754.070312 2680.859375 2718.132812 2659.140625 2695.515625 Z M 2659.140625 2695.515625" fill="none" stroke="#0a2f4d" stroke-linejoin="round" stroke-miterlimit="10" stroke-width="20" transform="matrix(.1 0 0 -.1 0 425.2)"/><g id="change1_8"><path d="M 295.390625 250.3125 C 293.222656 252.574219 289.628906 252.648438 287.367188 250.476562 C 285.105469 248.304688 285.03125 244.710938 287.203125 242.449219 C 289.375 240.1875 292.964844 240.113281 295.226562 242.285156 C 297.492188 244.457031 297.5625 248.050781 295.390625 250.3125" fill="#fbc439"/></g><path d="M 2953.90625 1748.875 C 2932.226562 1726.257812 2896.289062 1725.515625 2873.671875 1747.234375 C 2851.054688 1768.953125 2850.3125 1804.890625 2872.03125 1827.507812 C 2893.75 1850.125 2929.648438 1850.867188 2952.265625 1829.148438 C 2974.921875 1807.429688 2975.625 1771.492188 2953.90625 1748.875 Z M 2953.90625 1748.875" fill="none" stroke="#0a2f4d" stroke-linejoin="round" stroke-miterlimit="10" stroke-width="20" transform="matrix(.1 0 0 -.1 0 425.2)"/><g id="change1_9"><path d="M 225.441406 279.277344 C 222.070312 282.789062 216.492188 282.90625 212.980469 279.53125 C 209.46875 276.160156 209.355469 270.582031 212.726562 267.070312 C 216.097656 263.5625 221.675781 263.445312 225.1875 266.816406 C 228.699219 270.191406 228.816406 275.765625 225.441406 279.277344" fill="#fbc439"/></g><path d="M 2254.414062 1459.226562 C 2220.703125 1424.109375 2164.921875 1422.9375 2129.804688 1456.6875 C 2094.6875 1490.398438 2093.554688 1546.179688 2127.265625 1581.296875 C 2160.976562 1616.375 2216.757812 1617.546875 2251.875 1583.835938 C 2286.992188 1550.085938 2288.164062 1494.34375 2254.414062 1459.226562 Z M 2254.414062 1459.226562" fill="none" stroke="#0a2f4d" stroke-linejoin="round" stroke-miterlimit="10" stroke-width="20" transform="matrix(.1 0 0 -.1 0 425.2)"/><g id="change1_10"><path d="M 145.945312 186.449219 C 144.546875 187.90625 142.234375 187.953125 140.777344 186.558594 C 139.320312 185.15625 139.273438 182.84375 140.671875 181.386719 C 142.070312 179.929688 144.382812 179.882812 145.839844 181.28125 C 147.296875 182.679688 147.347656 184.996094 145.945312 186.449219" fill="#fbc439"/></g><path d="M 1459.453125 2387.507812 C 1445.46875 2372.9375 1422.34375 2372.46875 1407.773438 2386.414062 C 1393.203125 2400.4375 1392.734375 2423.5625 1406.71875 2438.132812 C 1420.703125 2452.703125 1443.828125 2453.171875 1458.398438 2439.1875 C 1472.96875 2425.203125 1473.476562 2402.039062 1459.453125 2387.507812 Z M 1459.453125 2387.507812" fill="none" stroke="#0a2f4d" stroke-linejoin="round" stroke-miterlimit="10" stroke-width="20" transform="matrix(.1 0 0 -.1 0 425.2)"/><g id="change1_11"><path d="M 208.890625 277.09375 C 208.890625 277.09375 163.8125 258.671875 165.121094 308.453125 L 152.023438 308.453125 C 152.023438 308.453125 131.0625 244.1875 155.953125 235.054688 C 180.84375 225.917969 206.152344 233.941406 208.890625 277.09375" fill="#fbc439"/></g><path d="M 2088.90625 1481.0625 C 2088.90625 1481.0625 1638.125 1665.28125 1651.210938 1167.46875 L 1520.234375 1167.46875 C 1520.234375 1167.46875 1310.625 1810.125 1559.53125 1901.453125 C 1808.4375 1992.820312 2061.523438 1912.585938 2088.90625 1481.0625 Z M 2088.90625 1481.0625" fill="none" stroke="#0a2f4d" stroke-linejoin="round" stroke-miterlimit="10" stroke-width="20" transform="matrix(.1 0 0 -.1 0 425.2)"/><path d="M 1533.984375 1667.507812 C 1533.984375 1667.507812 1517.773438 1802.820312 1666.640625 1821.765625" fill="none" stroke="#0a2f4d" stroke-linecap="round" stroke-linejoin="round" stroke-miterlimit="10" stroke-width="20" transform="matrix(.1 0 0 -.1 0 425.2)"/><g id="change1_12"><path d="M 216.308594 277.09375 C 216.308594 277.09375 261.386719 258.671875 260.078125 308.453125 L 273.179688 308.453125 C 273.179688 308.453125 294.136719 244.1875 269.25 235.054688 C 244.355469 225.917969 219.046875 233.941406 216.308594 277.09375" fill="#fbc439"/></g><path d="M 2163.085938 1481.0625 C 2163.085938 1481.0625 2613.867188 1665.28125 2600.78125 1167.46875 L 2731.796875 1167.46875 C 2731.796875 1167.46875 2941.367188 1810.125 2692.5 1901.453125 C 2443.554688 1992.820312 2190.46875 1912.585938 2163.085938 1481.0625 Z M 2163.085938 1481.0625" fill="none" stroke="#0a2f4d" stroke-linejoin="round" stroke-miterlimit="10" stroke-width="20" transform="matrix(.1 0 0 -.1 0 425.2)"/><g id="change2_1"><path d="M 171.453125 185.019531 C 171.257812 188.535156 171.140625 192.101562 171.140625 195.738281 C 171.140625 202.511719 171.492188 209.101562 172.15625 215.402344 C 176.292969 255.316406 192.832031 285.089844 212.601562 285.089844 C 235.484375 285.089844 254.058594 245.101562 254.058594 195.738281 C 254.058594 192.101562 253.933594 188.539062 253.734375 185.019531 L 171.453125 185.019531" fill="#d3d2d2"/></g><path d="M 1714.53125 2401.804688 C 1712.578125 2366.648438 1711.40625 2330.984375 1711.40625 2294.617188 C 1711.40625 2226.882812 1714.921875 2160.984375 1721.5625 2097.976562 C 1762.929688 1698.835938 1928.320312 1401.101562 2126.015625 1401.101562 C 2354.84375 1401.101562 2540.585938 1800.984375 2540.585938 2294.617188 C 2540.585938 2330.984375 2539.335938 2366.609375 2537.34375 2401.804688 Z M 1714.53125 2401.804688" fill="none" stroke="#0a2f4d" stroke-linecap="round" stroke-linejoin="round" stroke-miterlimit="10" stroke-width="20" transform="matrix(.1 0 0 -.1 0 425.2)"/><g id="change3_1"><path d="M 212.597656 116.75 C 212.597656 116.75 171.078125 143.644531 171.078125 186.335938 L 254.113281 186.335938 C 254.113281 143.644531 212.597656 116.75 212.597656 116.75" fill="#55beb3"/></g><path d="M 2125.976562 3084.5 C 2125.976562 3084.5 1710.78125 2815.554688 1710.78125 2388.640625 L 2541.132812 2388.640625 C 2541.132812 2815.554688 2125.976562 3084.5 2125.976562 3084.5 Z M 2125.976562 3084.5" fill="none" stroke="#0a2f4d" stroke-linejoin="round" stroke-miterlimit="10" stroke-width="20" transform="matrix(.1 0 0 -.1 0 425.2)"/><g id="change2_2"><path d="M 229.84375 190.113281 C 229.84375 199.636719 222.121094 207.359375 212.597656 207.359375 C 203.070312 207.359375 195.347656 199.636719 195.347656 190.113281 C 195.347656 180.585938 203.070312 172.863281 212.597656 172.863281 C 222.121094 172.863281 229.84375 180.585938 229.84375 190.113281" fill="#d3d2d2"/></g><path d="M 2298.4375 2350.867188 C 2298.4375 2255.632812 2221.210938 2178.40625 2125.976562 2178.40625 C 2030.703125 2178.40625 1953.476562 2255.632812 1953.476562 2350.867188 C 1953.476562 2446.140625 2030.703125 2523.367188 2125.976562 2523.367188 C 2221.210938 2523.367188 2298.4375 2446.140625 2298.4375 2350.867188 Z M 2298.4375 2350.867188" fill="none" stroke="#0a2f4d" stroke-linecap="round" stroke-linejoin="round" stroke-miterlimit="10" stroke-width="20" transform="matrix(.1 0 0 -.1 0 425.2)"/><path d="M 2050 2875.945312 C 2050 2875.945312 1848.828125 2754.65625 1832.265625 2509.382812" fill="none" stroke="#0a2f4d" stroke-linecap="round" stroke-linejoin="round" stroke-miterlimit="10" stroke-width="20" transform="matrix(.1 0 0 -.1 0 425.2)"/><g id="change4_1"><path d="M 184.058594 178.058594 C 184.058594 178.6875 183.550781 179.195312 182.921875 179.195312 C 182.296875 179.195312 181.789062 178.6875 181.789062 178.058594 C 181.789062 177.433594 182.296875 176.925781 182.921875 176.925781 C 183.550781 176.925781 184.058594 177.433594 184.058594 178.058594" fill="#0a2f4d"/></g></g></svg>